<?xml version="1.0" encoding="UTF-8" standalone="no"?>
<svg
   xmlns:dc="http://purl.org/dc/elements/1.1/"
   xmlns:cc="http://creativecommons.org/ns#"
   xmlns:rdf="http://www.w3.org/1999/02/22-rdf-syntax-ns#"
   xmlns:svg="http://www.w3.org/2000/svg"
   xmlns="http://www.w3.org/2000/svg"
   width="210mm"
   height="297mm"
   viewBox="0 0 210 297"
   version="1.1"
   id="svg32">
  <defs
     id="defs26" />
  <metadata
     id="metadata29">
    <rdf:RDF>
      <cc:Work
         rdf:about="">
        <dc:format>image/svg+xml</dc:format>
        <dc:type
           rdf:resource="http://purl.org/dc/dcmitype/StillImage" />
        <dc:title></dc:title>
      </cc:Work>
    </rdf:RDF>
  </metadata>
  <g
     id="layer1">
    <path
       d="m 146.77002,126.35361 c 0.29509,15.04476 -11.55913,29.07853 -26.44145,31.30306 -14.66059,2.77484 -30.361182,-6.37387 -35.16541,-20.5035 -5.410593,-14.08623 1.017684,-31.36865 14.323218,-38.490147 13.013112,-7.642623 31.113002,-4.121026 40.313422,7.840517 4.48825,5.57463 6.98789,12.69303 6.97022,19.85007 z"
       style="fill:none;stroke:#000000;stroke-width:0.4;stroke-linecap:round;stroke-linejoin:round;paint-order:markers fill stroke"
       id="path15" />
    <path
       d="m 180.77096,126.35361 c 0.28818,25.15198 -15.35576,49.53901 -38.33754,59.76363 -22.83969,10.79925 -51.674155,6.65427 -70.548213,-10.1393 C 52.62658,159.62627 44.509125,131.64925 52.021519,107.52876 58.946553,83.347181 80.917749,64.459977 105.86484,61.243174 c 24.97462,-3.805862 51.41664,8.417633 64.69201,29.913185 6.64707,10.453571 10.23267,22.809201 10.21411,35.197251 z"
       style="fill:none;stroke:#000000;stroke-width:0.4;stroke-linecap:round;stroke-linejoin:round;paint-order:markers fill stroke"
       id="path15-9" />
  </g>
</svg>
