<?xml version="1.0" encoding="UTF-8"?>
<svg xmlns="http://www.w3.org/2000/svg" xmlns:xlink="http://www.w3.org/1999/xlink" width="360pt" height="359pt" viewBox="0 0 360 359" version="1.1">
<g id="surface20">
<path style=" stroke:none;fill-rule:evenodd;fill:rgb(66.497803%,77.897644%,94.998169%);fill-opacity:1;" d="M 179.5 351.53125 L 183 351.496094 L 186.566406 351.386719 L 190.203125 351.199219 L 193.910156 350.929688 L 197.683594 350.570312 L 201.523438 350.121094 L 205.433594 349.570312 L 209.402344 348.917969 L 213.4375 348.15625 L 217.53125 347.285156 L 221.683594 346.289062 L 225.890625 345.171875 L 230.152344 343.921875 L 234.457031 342.535156 L 238.808594 341.003906 L 243.199219 339.328125 L 247.625 337.496094 L 252.078125 335.503906 L 256.550781 333.347656 L 261.042969 331.019531 L 265.539062 328.515625 L 270.039062 325.832031 L 274.527344 322.960938 L 279 319.902344 L 283.445312 316.652344 L 287.855469 313.203125 L 292.214844 309.554688 L 296.519531 305.707031 L 300.75 301.65625 L 304.898438 297.402344 L 308.957031 292.945312 L 312.902344 288.289062 L 316.730469 283.433594 L 320.425781 278.378906 L 323.972656 273.136719 L 327.363281 267.707031 L 330.578125 262.09375 L 333.609375 256.308594 L 336.445312 250.359375 L 339.074219 244.257812 L 341.480469 238.007812 L 343.65625 231.628906 L 345.589844 225.128906 L 347.277344 218.519531 L 348.707031 211.820312 L 349.871094 205.042969 L 350.769531 198.207031 L 351.394531 191.320312 L 351.742188 184.40625 L 351.8125 177.480469 L 351.601562 170.558594 L 351.117188 163.65625 L 350.355469 156.792969 L 349.324219 149.984375 L 348.023438 143.246094 L 346.464844 136.589844 L 344.652344 130.035156 L 342.597656 123.589844 L 340.304688 117.273438 L 337.785156 111.097656 L 335.054688 105.070312 L 332.117188 99.203125 L 328.992188 93.503906 L 325.6875 87.980469 L 322.21875 82.644531 L 318.59375 77.496094 L 314.832031 72.539062 L 310.945312 67.78125 L 306.941406 63.226562 L 302.835938 58.871094 L 298.644531 54.71875 L 294.375 50.769531 L 290.042969 47.019531 L 285.65625 43.472656 L 281.226562 40.125 L 276.765625 36.96875 L 272.285156 34.003906 L 267.789062 31.230469 L 263.289062 28.636719 L 258.792969 26.222656 L 254.3125 23.980469 L 249.847656 21.90625 L 245.40625 19.996094 L 241 18.242188 L 236.628906 16.636719 L 232.300781 15.179688 L 228.015625 13.863281 L 223.78125 12.679688 L 219.601562 11.625 L 215.476562 10.691406 L 211.414062 9.875 L 207.410156 9.167969 L 203.46875 8.566406 L 199.597656 8.070312 L 195.789062 7.664062 L 192.046875 7.351562 L 188.375 7.121094 L 184.773438 6.972656 L 181.242188 6.902344 L 177.757812 6.902344 L 174.226562 6.972656 L 170.625 7.121094 L 166.953125 7.351562 L 163.210938 7.664062 L 159.402344 8.070312 L 155.53125 8.566406 L 151.589844 9.167969 L 147.585938 9.875 L 143.523438 10.691406 L 139.398438 11.625 L 135.21875 12.679688 L 130.984375 13.863281 L 126.699219 15.179688 L 122.371094 16.636719 L 118 18.242188 L 113.59375 19.996094 L 109.152344 21.90625 L 104.6875 23.980469 L 100.207031 26.222656 L 95.710938 28.636719 L 91.210938 31.230469 L 86.714844 34.003906 L 82.234375 36.96875 L 77.773438 40.125 L 73.34375 43.472656 L 68.957031 47.019531 L 64.625 50.769531 L 60.355469 54.71875 L 56.164062 58.871094 L 52.058594 63.226562 L 48.054688 67.78125 L 44.167969 72.539062 L 40.40625 77.496094 L 36.78125 82.644531 L 33.3125 87.980469 L 30.007812 93.503906 L 26.882812 99.203125 L 23.945312 105.070312 L 21.214844 111.097656 L 18.695312 117.273438 L 16.402344 123.589844 L 14.347656 130.035156 L 12.535156 136.589844 L 10.976562 143.246094 L 9.675781 149.984375 L 8.644531 156.792969 L 7.882812 163.65625 L 7.398438 170.558594 L 7.1875 177.480469 L 7.257812 184.40625 L 7.605469 191.320312 L 8.230469 198.207031 L 9.128906 205.042969 L 10.292969 211.820312 L 11.722656 218.519531 L 13.410156 225.128906 L 15.34375 231.628906 L 17.519531 238.007812 L 19.925781 244.257812 L 22.554688 250.359375 L 25.390625 256.308594 L 28.421875 262.09375 L 31.636719 267.707031 L 35.027344 273.136719 L 38.574219 278.378906 L 42.269531 283.433594 L 46.097656 288.289062 L 50.042969 292.945312 L 54.101562 297.402344 L 58.25 301.65625 L 62.480469 305.707031 L 66.785156 309.554688 L 71.144531 313.203125 L 75.554688 316.652344 L 80 319.902344 L 84.472656 322.960938 L 88.960938 325.832031 L 93.460938 328.515625 L 97.957031 331.019531 L 102.449219 333.347656 L 106.921875 335.503906 L 111.375 337.496094 L 115.800781 339.328125 L 120.191406 341.003906 L 124.542969 342.535156 L 128.847656 343.921875 L 133.109375 345.171875 L 137.316406 346.289062 L 141.46875 347.285156 L 145.5625 348.15625 L 149.597656 348.917969 L 153.566406 349.570312 L 157.476562 350.121094 L 161.316406 350.570312 L 165.089844 350.929688 L 168.796875 351.199219 L 172.433594 351.386719 L 176 351.496094 Z M 179.5 265.371094 L 181.980469 265.335938 L 184.527344 265.226562 L 187.144531 265.03125 L 189.828125 264.75 L 192.578125 264.375 L 195.390625 263.894531 L 198.269531 263.304688 L 201.203125 262.59375 L 204.1875 261.761719 L 207.226562 260.789062 L 210.304688 259.679688 L 213.421875 258.414062 L 216.566406 256.992188 L 219.730469 255.40625 L 222.902344 253.640625 L 226.074219 251.699219 L 229.234375 249.570312 L 232.367188 247.246094 L 235.457031 244.726562 L 238.492188 242.007812 L 241.453125 239.089844 L 244.328125 235.964844 L 247.089844 232.644531 L 249.730469 229.125 L 252.226562 225.414062 L 254.558594 221.519531 L 256.710938 217.449219 L 258.667969 213.214844 L 260.40625 208.835938 L 261.921875 204.320312 L 263.191406 199.691406 L 264.207031 194.964844 L 264.960938 190.167969 L 265.445312 185.316406 L 265.652344 180.433594 L 265.582031 175.546875 L 265.238281 170.679688 L 264.617188 165.851562 L 263.730469 161.085938 L 262.585938 156.40625 L 261.195312 151.832031 L 259.566406 147.382812 L 257.714844 143.074219 L 255.660156 138.921875 L 253.414062 134.9375 L 250.996094 131.132812 L 248.429688 127.515625 L 245.722656 124.09375 L 242.902344 120.871094 L 239.984375 117.851562 L 236.984375 115.03125 L 233.917969 112.414062 L 230.804688 109.992188 L 227.65625 107.765625 L 224.488281 105.730469 L 221.316406 103.878906 L 218.144531 102.207031 L 214.988281 100.703125 L 211.859375 99.359375 L 208.761719 98.171875 L 205.703125 97.132812 L 202.6875 96.230469 L 199.726562 95.460938 L 196.824219 94.8125 L 193.976562 94.277344 L 191.195312 93.851562 L 188.476562 93.523438 L 185.828125 93.285156 L 183.246094 93.132812 L 180.730469 93.0625 L 178.269531 93.0625 L 175.753906 93.132812 L 173.171875 93.285156 L 170.523438 93.523438 L 167.804688 93.851562 L 165.023438 94.277344 L 162.175781 94.8125 L 159.273438 95.460938 L 156.3125 96.230469 L 153.296875 97.132812 L 150.238281 98.171875 L 147.140625 99.359375 L 144.011719 100.703125 L 140.855469 102.207031 L 137.683594 103.878906 L 134.511719 105.730469 L 131.34375 107.765625 L 128.195312 109.992188 L 125.082031 112.414062 L 122.015625 115.03125 L 119.015625 117.851562 L 116.097656 120.871094 L 113.277344 124.09375 L 110.570312 127.515625 L 108.003906 131.132812 L 105.585938 134.9375 L 103.339844 138.921875 L 101.285156 143.074219 L 99.433594 147.382812 L 97.804688 151.832031 L 96.414062 156.40625 L 95.269531 161.085938 L 94.382812 165.851562 L 93.761719 170.679688 L 93.417969 175.546875 L 93.347656 180.433594 L 93.554688 185.316406 L 94.039062 190.167969 L 94.792969 194.964844 L 95.808594 199.691406 L 97.078125 204.320312 L 98.59375 208.835938 L 100.332031 213.214844 L 102.289062 217.449219 L 104.441406 221.519531 L 106.773438 225.414062 L 109.269531 229.125 L 111.910156 232.644531 L 114.671875 235.964844 L 117.546875 239.089844 L 120.507812 242.007812 L 123.542969 244.726562 L 126.632812 247.246094 L 129.765625 249.570312 L 132.925781 251.699219 L 136.097656 253.640625 L 139.269531 255.40625 L 142.433594 256.992188 L 145.578125 258.414062 L 148.695312 259.679688 L 151.773438 260.789062 L 154.8125 261.761719 L 157.796875 262.59375 L 160.730469 263.304688 L 163.609375 263.894531 L 166.421875 264.375 L 169.171875 264.75 L 171.855469 265.03125 L 174.472656 265.226562 L 177.019531 265.335938 Z M 179.5 265.371094 "/>
</g>
</svg>
