<?xml version="1.0" encoding="UTF-8"?>
<svg xmlns="http://www.w3.org/2000/svg" xmlns:xlink="http://www.w3.org/1999/xlink" width="328pt" height="432pt" viewBox="0 0 328 432" version="1.1">
<g id="surface48">
<path style="fill-rule:nonzero;fill:rgb(66.497803%,77.897644%,94.998169%);fill-opacity:1;stroke-width:0.03;stroke-linecap:square;stroke-linejoin:miter;stroke:rgb(66.497803%,77.897644%,94.998169%);stroke-opacity:1;stroke-miterlimit:3.25;" d="M 11.105469 370.285156 L 11.105469 424.71875 L 320.574219 424.71875 L 320.574219 346.261719 L 184.136719 346.261719 L 180.035156 346.292969 L 170.921875 346.800781 L 161.804688 347.304688 L 146.226562 349.503906 L 154.023438 342.59375 L 161.742188 335.648438 L 169.382812 328.664062 L 176.945312 321.644531 L 184.429688 314.589844 L 191.832031 307.5 L 199.15625 300.371094 L 206.382812 293.214844 L 216.835938 282.476562 L 226.796875 271.746094 L 236.261719 261.023438 L 245.230469 250.3125 L 253.707031 239.589844 L 260.292969 230.644531 L 267.550781 219.910156 L 273.0625 210.976562 L 279.027344 200.257812 L 284.285156 189.550781 L 288.03125 180.625 L 291.097656 171.753906 L 293.273438 162.097656 L 295.445312 152.441406 L 296.539062 134.867188 L 295.972656 123.292969 L 294.847656 114.003906 L 292.71875 103.28125 L 289.738281 93.015625 L 286.605469 84.820312 L 282.15625 75.433594 L 277.03125 66.585938 L 271.226562 58.285156 L 264.738281 50.527344 L 258.8125 44.476562 L 251.121094 37.734375 L 242.847656 31.609375 L 229.328125 23.597656 L 216.195312 17.652344 L 202.050781 12.828125 L 187.070312 9.308594 L 169.234375 6.949219 L 152.507812 6.28125 L 134.132812 6.960938 L 117.121094 9.003906 L 101.371094 12.359375 L 86.304688 16.949219 L 71.820312 22.804688 L 59.132812 29.324219 L 46.933594 36.988281 L 35.226562 45.773438 L 27.851562 51.894531 L 20.433594 58.449219 L 12.972656 65.433594 L 6.542969 71.761719 L 19.214844 84.535156 L 31.882812 97.308594 L 44.554688 110.078125 L 57.226562 122.851562 L 64.351562 116.460938 L 71.480469 110.070312 L 85.375 99.554688 L 98.707031 91.066406 L 111.433594 85.410156 L 124.90625 82.015625 L 139.128906 80.886719 L 155.121094 82.011719 L 169.035156 85.382812 L 184.78125 93.695312 L 196.40625 106.171875 L 202.953125 120.929688 L 204.332031 130.921875 L 205.707031 140.910156 L 205.335938 150.296875 L 203.472656 160.875 L 200.074219 171.753906 L 195.941406 181.3125 L 189.707031 192.734375 L 182.144531 204.460938 L 173.320312 216.539062 L 163.238281 228.96875 L 151.902344 241.753906 L 137.542969 256.824219 L 129.8125 264.589844 L 121.714844 272.511719 L 113.246094 280.589844 L 106.65625 286.746094 L 99.859375 292.992188 L 90.472656 301.457031 L 78.300781 312.238281 L 65.707031 323.296875 L 52.6875 334.628906 L 39.25 346.238281 L 30.984375 353.335938 L 25.386719 358.125 L 19.726562 362.957031 Z M 11.105469 370.285156 "/>
<path style="fill:none;stroke-width:1;stroke-linecap:square;stroke-linejoin:miter;stroke:rgb(52.497864%,61.499023%,74.998474%);stroke-opacity:1;stroke-miterlimit:3.25;" d="M 11.105469 370.285156 L 11.105469 424.71875 L 320.574219 424.71875 L 320.574219 346.261719 L 184.136719 346.261719 L 180.035156 346.292969 L 170.921875 346.800781 L 161.804688 347.304688 L 146.226562 349.503906 L 154.023438 342.59375 L 161.742188 335.648438 L 169.382812 328.664062 L 176.945312 321.644531 L 184.429688 314.589844 L 191.832031 307.5 L 199.15625 300.371094 L 206.382812 293.214844 L 216.835938 282.476562 L 226.796875 271.746094 L 236.261719 261.023438 L 245.230469 250.3125 L 253.707031 239.589844 L 260.292969 230.644531 L 267.550781 219.910156 L 273.0625 210.976562 L 279.027344 200.257812 L 284.285156 189.550781 L 288.03125 180.625 L 291.097656 171.753906 L 293.273438 162.097656 L 295.445312 152.441406 L 296.539062 134.867188 L 295.972656 123.292969 L 294.847656 114.003906 L 292.71875 103.28125 L 289.738281 93.015625 L 286.605469 84.820312 L 282.15625 75.433594 L 277.03125 66.585938 L 271.226562 58.285156 L 264.738281 50.527344 L 258.8125 44.476562 L 251.121094 37.734375 L 242.847656 31.609375 L 229.328125 23.597656 L 216.195312 17.652344 L 202.050781 12.828125 L 187.070312 9.308594 L 169.234375 6.949219 L 152.507812 6.28125 L 134.132812 6.960938 L 117.121094 9.003906 L 101.371094 12.359375 L 86.304688 16.949219 L 71.820312 22.804688 L 59.132812 29.324219 L 46.933594 36.988281 L 35.226562 45.773438 L 27.851562 51.894531 L 20.433594 58.449219 L 12.972656 65.433594 L 6.542969 71.761719 L 19.214844 84.535156 L 31.882812 97.308594 L 44.554688 110.078125 L 57.226562 122.851562 L 64.351562 116.460938 L 71.480469 110.070312 L 85.375 99.554688 L 98.707031 91.066406 L 111.433594 85.410156 L 124.90625 82.015625 L 139.128906 80.886719 L 155.121094 82.011719 L 169.035156 85.382812 L 184.78125 93.695312 L 196.40625 106.171875 L 202.953125 120.929688 L 204.332031 130.921875 L 205.707031 140.910156 L 205.335938 150.296875 L 203.472656 160.875 L 200.074219 171.753906 L 195.941406 181.3125 L 189.707031 192.734375 L 182.144531 204.460938 L 173.320312 216.539062 L 163.238281 228.96875 L 151.902344 241.753906 L 137.542969 256.824219 L 129.8125 264.589844 L 121.714844 272.511719 L 113.246094 280.589844 L 106.65625 286.746094 L 99.859375 292.992188 L 90.472656 301.457031 L 78.300781 312.238281 L 65.707031 323.296875 L 52.6875 334.628906 L 39.25 346.238281 L 30.984375 353.335938 L 25.386719 358.125 L 19.726562 362.957031 Z M 11.105469 370.285156 "/>
</g>
</svg>
