<?xml version="1.0" encoding="UTF-8"?>
<svg xmlns="http://www.w3.org/2000/svg" xmlns:xlink="http://www.w3.org/1999/xlink" width="323pt" height="432pt" viewBox="0 0 323 432" version="1.1">
<g id="surface52">
<path style="fill-rule:nonzero;fill:rgb(66.497803%,77.897644%,94.998169%);fill-opacity:1;stroke-width:0.03;stroke-linecap:square;stroke-linejoin:miter;stroke:rgb(66.497803%,77.897644%,94.998169%);stroke-opacity:1;stroke-miterlimit:3.25;" d="M 49.546875 308.480469 L 44.160156 315.886719 L 33.378906 330.707031 L 27.992188 338.113281 L 17.210938 352.933594 L 11.824219 360.34375 L 6.433594 367.75 L 14.617188 376.117188 L 23.570312 383.90625 L 33.292969 391.117188 L 43.789062 397.75 L 55.054688 403.804688 L 67.09375 409.28125 L 79.917969 414.035156 L 90.765625 417.214844 L 105.046875 420.414062 L 120.140625 422.75 L 136.046875 424.21875 L 152.757812 424.824219 L 166.632812 424.621094 L 181.015625 423.574219 L 195.128906 421.660156 L 208.96875 418.886719 L 222.492188 415.257812 L 235.3125 410.84375 L 247.347656 405.664062 L 257.035156 400.617188 L 267.605469 394.015625 L 277.292969 386.648438 L 286.011719 378.515625 L 292.714844 370.933594 L 300.535156 359.949219 L 306.261719 349.550781 L 311.109375 336.878906 L 313.835938 325.109375 L 315.21875 310.878906 L 314.832031 296.914062 L 313.023438 284.820312 L 309.007812 271.410156 L 304.132812 261.15625 L 297.863281 251.742188 L 290.203125 243.160156 L 279.738281 233.945312 L 268.332031 225.875 L 255.984375 218.957031 L 242.691406 213.1875 L 228.453125 208.570312 L 228.453125 205.992188 L 236.691406 201.710938 L 244.929688 197.425781 L 253.164062 193.144531 L 261.402344 188.859375 L 271.507812 181.285156 L 280.378906 173.085938 L 287.949219 164.195312 L 293.96875 154.519531 L 298.417969 144.054688 L 300.925781 134.738281 L 302.496094 122.835938 L 302.390625 107.878906 L 300.335938 93.085938 L 296.878906 80.898438 L 291.886719 69.609375 L 284.609375 57.960938 L 275.746094 47.402344 L 265.296875 37.933594 L 253.339844 29.589844 L 240 22.503906 L 225.269531 16.6875 L 209.167969 12.117188 L 191.964844 8.816406 L 182.855469 7.824219 L 173.746094 6.835938 L 163.1875 6.304688 L 154.511719 6.175781 L 144.164062 6.417969 L 136.527344 6.914062 L 121.566406 8.726562 L 107.027344 11.621094 L 92.910156 15.605469 L 76.960938 21.613281 L 61.5 28.855469 L 46.492188 37.253906 L 31.933594 46.808594 L 17.832031 57.519531 L 23.703125 64.652344 L 29.578125 71.789062 L 41.320312 86.0625 L 47.195312 93.199219 L 53.066406 100.335938 L 58.941406 107.472656 L 64.8125 114.609375 L 77.289062 105.359375 L 88.257812 98.191406 L 99.117188 92.003906 L 109.929688 86.832031 L 119.753906 83.355469 L 130.003906 80.910156 L 140.671875 79.503906 L 151.988281 79.136719 L 164.101562 79.964844 L 173.441406 81.695312 L 183.128906 84.90625 L 191.507812 89.398438 L 203.75 101.75 L 208.984375 116.8125 L 208.992188 129.789062 L 204.863281 142.691406 L 196.363281 153.949219 L 183.480469 163.554688 L 167.421875 170.164062 L 158.351562 172.1875 L 149.285156 174.210938 L 137.210938 175.796875 L 127.339844 176.640625 L 116.769531 177.183594 L 101.585938 177.449219 L 101.585938 243.460938 L 110.5625 243.605469 L 119.542969 243.753906 L 135.78125 244.644531 L 150.300781 246.125 L 164.605469 248.46875 L 177.09375 251.398438 L 187.871094 254.914062 L 196.933594 259.019531 L 204.46875 263.742188 L 215.570312 275.820312 L 221.46875 292.851562 L 221.214844 302.246094 L 220.960938 311.636719 L 213.640625 326.402344 L 207.449219 332.5 L 199.582031 337.738281 L 190.550781 342.03125 L 180.570312 345.335938 L 169.652344 347.648438 L 157.785156 348.972656 L 145.335938 349.300781 L 132.625 348.496094 L 121.972656 346.8125 L 111.539062 344.207031 L 101.328125 340.679688 L 91.363281 336.257812 L 80.179688 330.347656 L 69.484375 323.75 L 59.273438 316.460938 Z M 49.546875 308.480469 "/>
<path style="fill:none;stroke-width:1;stroke-linecap:square;stroke-linejoin:miter;stroke:rgb(52.497864%,61.499023%,74.998474%);stroke-opacity:1;stroke-miterlimit:3.25;" d="M 49.546875 308.480469 L 44.160156 315.886719 L 33.378906 330.707031 L 27.992188 338.113281 L 17.210938 352.933594 L 11.824219 360.34375 L 6.433594 367.75 L 14.617188 376.117188 L 23.570312 383.90625 L 33.292969 391.117188 L 43.789062 397.75 L 55.054688 403.804688 L 67.09375 409.28125 L 79.917969 414.035156 L 90.765625 417.214844 L 105.046875 420.414062 L 120.140625 422.75 L 136.046875 424.21875 L 152.757812 424.824219 L 166.632812 424.621094 L 181.015625 423.574219 L 195.128906 421.660156 L 208.96875 418.886719 L 222.492188 415.257812 L 235.3125 410.84375 L 247.347656 405.664062 L 257.035156 400.617188 L 267.605469 394.015625 L 277.292969 386.648438 L 286.011719 378.515625 L 292.714844 370.933594 L 300.535156 359.949219 L 306.261719 349.550781 L 311.109375 336.878906 L 313.835938 325.109375 L 315.21875 310.878906 L 314.832031 296.914062 L 313.023438 284.820312 L 309.007812 271.410156 L 304.132812 261.15625 L 297.863281 251.742188 L 290.203125 243.160156 L 279.738281 233.945312 L 268.332031 225.875 L 255.984375 218.957031 L 242.691406 213.1875 L 228.453125 208.570312 L 228.453125 205.992188 L 236.691406 201.710938 L 244.929688 197.425781 L 253.164062 193.144531 L 261.402344 188.859375 L 271.507812 181.285156 L 280.378906 173.085938 L 287.949219 164.195312 L 293.96875 154.519531 L 298.417969 144.054688 L 300.925781 134.738281 L 302.496094 122.835938 L 302.390625 107.878906 L 300.335938 93.085938 L 296.878906 80.898438 L 291.886719 69.609375 L 284.609375 57.960938 L 275.746094 47.402344 L 265.296875 37.933594 L 253.339844 29.589844 L 240 22.503906 L 225.269531 16.6875 L 209.167969 12.117188 L 191.964844 8.816406 L 182.855469 7.824219 L 173.746094 6.835938 L 163.1875 6.304688 L 154.511719 6.175781 L 144.164062 6.417969 L 136.527344 6.914062 L 121.566406 8.726562 L 107.027344 11.621094 L 92.910156 15.605469 L 76.960938 21.613281 L 61.5 28.855469 L 46.492188 37.253906 L 31.933594 46.808594 L 17.832031 57.519531 L 23.703125 64.652344 L 29.578125 71.789062 L 41.320312 86.0625 L 47.195312 93.199219 L 53.066406 100.335938 L 58.941406 107.472656 L 64.8125 114.609375 L 77.289062 105.359375 L 88.257812 98.191406 L 99.117188 92.003906 L 109.929688 86.832031 L 119.753906 83.355469 L 130.003906 80.910156 L 140.671875 79.503906 L 151.988281 79.136719 L 164.101562 79.964844 L 173.441406 81.695312 L 183.128906 84.90625 L 191.507812 89.398438 L 203.75 101.75 L 208.984375 116.8125 L 208.992188 129.789062 L 204.863281 142.691406 L 196.363281 153.949219 L 183.480469 163.554688 L 167.421875 170.164062 L 158.351562 172.1875 L 149.285156 174.210938 L 137.210938 175.796875 L 127.339844 176.640625 L 116.769531 177.183594 L 101.585938 177.449219 L 101.585938 243.460938 L 110.5625 243.605469 L 119.542969 243.753906 L 135.78125 244.644531 L 150.300781 246.125 L 164.605469 248.46875 L 177.09375 251.398438 L 187.871094 254.914062 L 196.933594 259.019531 L 204.46875 263.742188 L 215.570312 275.820312 L 221.46875 292.851562 L 221.214844 302.246094 L 220.960938 311.636719 L 213.640625 326.402344 L 207.449219 332.5 L 199.582031 337.738281 L 190.550781 342.03125 L 180.570312 345.335938 L 169.652344 347.648438 L 157.785156 348.972656 L 145.335938 349.300781 L 132.625 348.496094 L 121.972656 346.8125 L 111.539062 344.207031 L 101.328125 340.679688 L 91.363281 336.257812 L 80.179688 330.347656 L 69.484375 323.75 L 59.273438 316.460938 Z M 49.546875 308.480469 "/>
</g>
</svg>
