<?xml version="1.0" encoding="UTF-8"?>
<svg xmlns="http://www.w3.org/2000/svg" xmlns:xlink="http://www.w3.org/1999/xlink" width="327pt" height="432pt" viewBox="0 0 327 432" version="1.1">
<g id="surface60">
<path style="fill-rule:nonzero;fill:rgb(66.497803%,77.897644%,94.998169%);fill-opacity:1;stroke-width:0.03;stroke-linecap:square;stroke-linejoin:miter;stroke:rgb(66.497803%,77.897644%,94.998169%);stroke-opacity:1;stroke-miterlimit:3.25;" d="M 49.074219 307.359375 L 33.113281 329.882812 L 27.796875 337.386719 L 11.835938 359.910156 L 6.519531 367.417969 L 17.054688 376.878906 L 26.558594 384.277344 L 36.722656 391.234375 L 47.546875 397.75 L 59.027344 403.820312 L 71.175781 409.4375 L 84.15625 414.265625 L 95.191406 417.472656 L 109.8125 420.660156 L 125.339844 422.9375 L 141.78125 424.304688 L 155.585938 424.742188 L 169.589844 424.492188 L 181.945312 423.460938 L 194.09375 421.660156 L 206.03125 419.085938 L 219.691406 415.101562 L 231.007812 410.890625 L 241.777344 405.976562 L 252 400.363281 L 261.671875 394.050781 L 272.269531 385.800781 L 280.679688 378.003906 L 288.367188 369.570312 L 295.328125 360.488281 L 301.566406 350.761719 L 307.082031 340.394531 L 310.992188 331.273438 L 314.710938 319.761719 L 316.996094 309.695312 L 318.546875 299.195312 L 319.359375 288.265625 L 319.378906 275.015625 L 318.476562 262.582031 L 316.671875 250.871094 L 313.96875 239.886719 L 310.363281 229.625 L 305.890625 220.058594 L 299.816406 209.742188 L 293.914062 201.628906 L 287.371094 194.191406 L 280.179688 187.433594 L 272.378906 181.335938 L 262.648438 175.007812 L 253.777344 170.257812 L 242.808594 165.496094 L 232.871094 162.089844 L 220.839844 158.894531 L 208.503906 156.546875 L 195.859375 155.039062 L 182.90625 154.378906 L 169.179688 154.601562 L 158.160156 155.585938 L 147.269531 157.476562 L 136.941406 160.101562 L 125.027344 164 L 125.90625 154.269531 L 126.789062 144.535156 L 128.546875 125.066406 L 129.429688 115.335938 L 131.1875 95.867188 L 132.070312 86.136719 L 300.777344 86.136719 L 300.777344 6.257812 L 44.546875 6.257812 L 44.546875 214.203125 L 62.90625 227.78125 L 72.085938 234.574219 L 81.265625 241.363281 L 95.289062 233.886719 L 108.125 228.132812 L 119.605469 224.132812 L 130.160156 221.863281 L 145.46875 220.695312 L 160.78125 221.089844 L 174.515625 223.230469 L 185.257812 226.46875 L 202.492188 235.773438 L 214.570312 247.894531 L 222.011719 263.324219 L 223.40625 272.695312 L 224.800781 282.0625 L 223.933594 296.140625 L 221.265625 306.929688 L 216.820312 316.484375 L 210.59375 324.8125 L 201.09375 332.96875 L 189.847656 339.390625 L 177.238281 344.054688 L 163.273438 346.949219 L 147.949219 348.085938 L 134.277344 347.625 L 119.792969 345.496094 L 106.078125 341.664062 L 94.710938 336.914062 L 86.265625 332.265625 L 77.824219 327.613281 L 63.132812 318.023438 Z M 49.074219 307.359375 "/>
<path style="fill:none;stroke-width:1;stroke-linecap:square;stroke-linejoin:miter;stroke:rgb(52.497864%,61.499023%,74.998474%);stroke-opacity:1;stroke-miterlimit:3.25;" d="M 49.074219 307.359375 L 33.113281 329.882812 L 27.796875 337.386719 L 11.835938 359.910156 L 6.519531 367.417969 L 17.054688 376.878906 L 26.558594 384.277344 L 36.722656 391.234375 L 47.546875 397.75 L 59.027344 403.820312 L 71.175781 409.4375 L 84.15625 414.265625 L 95.191406 417.472656 L 109.8125 420.660156 L 125.339844 422.9375 L 141.78125 424.304688 L 155.585938 424.742188 L 169.589844 424.492188 L 181.945312 423.460938 L 194.09375 421.660156 L 206.03125 419.085938 L 219.691406 415.101562 L 231.007812 410.890625 L 241.777344 405.976562 L 252 400.363281 L 261.671875 394.050781 L 272.269531 385.800781 L 280.679688 378.003906 L 288.367188 369.570312 L 295.328125 360.488281 L 301.566406 350.761719 L 307.082031 340.394531 L 310.992188 331.273438 L 314.710938 319.761719 L 316.996094 309.695312 L 318.546875 299.195312 L 319.359375 288.265625 L 319.378906 275.015625 L 318.476562 262.582031 L 316.671875 250.871094 L 313.96875 239.886719 L 310.363281 229.625 L 305.890625 220.058594 L 299.816406 209.742188 L 293.914062 201.628906 L 287.371094 194.191406 L 280.179688 187.433594 L 272.378906 181.335938 L 262.648438 175.007812 L 253.777344 170.257812 L 242.808594 165.496094 L 232.871094 162.089844 L 220.839844 158.894531 L 208.503906 156.546875 L 195.859375 155.039062 L 182.90625 154.378906 L 169.179688 154.601562 L 158.160156 155.585938 L 147.269531 157.476562 L 136.941406 160.101562 L 125.027344 164 L 125.90625 154.269531 L 126.789062 144.535156 L 128.546875 125.066406 L 129.429688 115.335938 L 131.1875 95.867188 L 132.070312 86.136719 L 300.777344 86.136719 L 300.777344 6.257812 L 44.546875 6.257812 L 44.546875 214.203125 L 62.90625 227.78125 L 72.085938 234.574219 L 81.265625 241.363281 L 95.289062 233.886719 L 108.125 228.132812 L 119.605469 224.132812 L 130.160156 221.863281 L 145.46875 220.695312 L 160.78125 221.089844 L 174.515625 223.230469 L 185.257812 226.46875 L 202.492188 235.773438 L 214.570312 247.894531 L 222.011719 263.324219 L 223.40625 272.695312 L 224.800781 282.0625 L 223.933594 296.140625 L 221.265625 306.929688 L 216.820312 316.484375 L 210.59375 324.8125 L 201.09375 332.96875 L 189.847656 339.390625 L 177.238281 344.054688 L 163.273438 346.949219 L 147.949219 348.085938 L 134.277344 347.625 L 119.792969 345.496094 L 106.078125 341.664062 L 94.710938 336.914062 L 86.265625 332.265625 L 77.824219 327.613281 L 63.132812 318.023438 Z M 49.074219 307.359375 "/>
</g>
</svg>
