<?xml version="1.0" encoding="UTF-8"?>
<svg xmlns="http://www.w3.org/2000/svg" xmlns:xlink="http://www.w3.org/1999/xlink" width="328pt" height="432pt" viewBox="0 0 328 432" version="1.1">
<g id="surface68">
<path style="fill-rule:nonzero;fill:rgb(66.497803%,77.897644%,94.998169%);fill-opacity:1;stroke-width:0.03;stroke-linecap:square;stroke-linejoin:miter;stroke:rgb(66.497803%,77.897644%,94.998169%);stroke-opacity:1;stroke-miterlimit:3.25;" d="M 93.550781 424.714844 L 191.050781 424.714844 L 191.15625 408.628906 L 191.375 396.898438 L 191.714844 385.453125 L 192.351562 370.628906 L 193.203125 356.316406 L 194.261719 342.503906 L 195.535156 329.199219 L 196.632812 319.550781 L 197.867188 310.140625 L 199.269531 300.847656 L 201.390625 288.644531 L 203.167969 279.632812 L 205.789062 267.800781 L 207.9375 259.066406 L 211.058594 247.605469 L 213.585938 239.148438 L 217.203125 228.0625 L 221.179688 217.125 L 225.535156 206.285156 L 230.265625 195.542969 L 235.375 184.894531 L 240.859375 174.339844 L 246.722656 163.878906 L 252.964844 153.515625 L 259.613281 143.199219 L 266.785156 132.703125 L 274.484375 122.011719 L 282.707031 111.125 L 291.460938 100.039062 L 300.742188 88.753906 L 310.550781 77.269531 L 320.882812 65.589844 L 320.882812 6.285156 L 6.546875 6.285156 L 6.546875 88.035156 L 216.171875 88.035156 L 207.542969 99.035156 L 199.28125 109.910156 L 191.382812 120.652344 L 183.847656 131.269531 L 176.683594 141.757812 L 169.882812 152.117188 L 163.449219 162.351562 L 158.863281 169.945312 L 153.015625 180.101562 L 147.46875 190.328125 L 142.214844 200.621094 L 138.472656 208.390625 L 134.894531 216.195312 L 130.382812 226.664062 L 126.167969 237.203125 L 123.203125 245.152344 L 119.503906 255.847656 L 116.039062 266.6875 L 112.808594 277.671875 L 109.808594 288.796875 L 107.046875 300.0625 L 104.519531 311.472656 L 102.226562 323.027344 L 100.667969 331.785156 L 98.839844 343.675781 L 97.28125 355.863281 L 95.996094 368.347656 L 95.207031 377.90625 L 94.394531 390.910156 L 93.964844 400.855469 L 93.625 414.378906 Z M 93.550781 424.714844 "/>
<path style="fill:none;stroke-width:1;stroke-linecap:square;stroke-linejoin:miter;stroke:rgb(52.497864%,61.499023%,74.998474%);stroke-opacity:1;stroke-miterlimit:3.25;" d="M 93.550781 424.714844 L 191.050781 424.714844 L 191.15625 408.628906 L 191.375 396.898438 L 191.714844 385.453125 L 192.351562 370.628906 L 193.203125 356.316406 L 194.261719 342.503906 L 195.535156 329.199219 L 196.632812 319.550781 L 197.867188 310.140625 L 199.269531 300.847656 L 201.390625 288.644531 L 203.167969 279.632812 L 205.789062 267.800781 L 207.9375 259.066406 L 211.058594 247.605469 L 213.585938 239.148438 L 217.203125 228.0625 L 221.179688 217.125 L 225.535156 206.285156 L 230.265625 195.542969 L 235.375 184.894531 L 240.859375 174.339844 L 246.722656 163.878906 L 252.964844 153.515625 L 259.613281 143.199219 L 266.785156 132.703125 L 274.484375 122.011719 L 282.707031 111.125 L 291.460938 100.039062 L 300.742188 88.753906 L 310.550781 77.269531 L 320.882812 65.589844 L 320.882812 6.285156 L 6.546875 6.285156 L 6.546875 88.035156 L 216.171875 88.035156 L 207.542969 99.035156 L 199.28125 109.910156 L 191.382812 120.652344 L 183.847656 131.269531 L 176.683594 141.757812 L 169.882812 152.117188 L 163.449219 162.351562 L 158.863281 169.945312 L 153.015625 180.101562 L 147.46875 190.328125 L 142.214844 200.621094 L 138.472656 208.390625 L 134.894531 216.195312 L 130.382812 226.664062 L 126.167969 237.203125 L 123.203125 245.152344 L 119.503906 255.847656 L 116.039062 266.6875 L 112.808594 277.671875 L 109.808594 288.796875 L 107.046875 300.0625 L 104.519531 311.472656 L 102.226562 323.027344 L 100.667969 331.785156 L 98.839844 343.675781 L 97.28125 355.863281 L 95.996094 368.347656 L 95.207031 377.90625 L 94.394531 390.910156 L 93.964844 400.855469 L 93.625 414.378906 Z M 93.550781 424.714844 "/>
</g>
</svg>
