<?xml version="1.0" encoding="UTF-8"?>
<svg xmlns="http://www.w3.org/2000/svg" xmlns:xlink="http://www.w3.org/1999/xlink" width="321pt" height="432pt" viewBox="0 0 321 432" version="1.1">
<g id="surface64">
<path style=" stroke:none;fill-rule:evenodd;fill:rgb(66.497803%,77.897644%,94.998169%);fill-opacity:1;" d="M 40.28125 356.394531 L 51.203125 371.214844 L 63.339844 384.101562 L 78.105469 396.4375 L 92.179688 405.496094 L 105.222656 411.949219 L 118.859375 417.03125 L 134.75 421.296875 L 148.882812 423.695312 L 163.234375 424.847656 L 179.066406 424.707031 L 194.089844 423.226562 L 208.679688 420.4375 L 222.828125 416.332031 L 236.378906 410.953125 L 249.070312 404.355469 L 260.898438 396.546875 L 271.867188 387.515625 L 281.777344 377.367188 L 289.492188 367.671875 L 297.207031 355.667969 L 302.996094 344.351562 L 307.09375 334.046875 L 310.246094 323.175781 L 312.449219 311.738281 L 313.710938 299.742188 L 313.996094 285.097656 L 313.183594 270.9375 L 311.65625 259.519531 L 308.914062 247.042969 L 305.734375 237.074219 L 301.835938 227.746094 L 296.539062 217.6875 L 290.457031 208.539062 L 284.613281 201.421875 L 277.066406 193.960938 L 268.832031 187.359375 L 259.96875 181.589844 L 250.480469 176.652344 L 240.363281 172.550781 L 228.128906 168.878906 L 215.332031 166.296875 L 203.667969 164.929688 L 189.808594 164.386719 L 178.960938 165.011719 L 167.734375 166.894531 L 156.128906 170.03125 L 144.144531 174.421875 L 132.03125 179.976562 L 120.472656 186.566406 L 111.039062 193.042969 L 102.042969 200.277344 L 93.484375 208.277344 L 93.710938 196.777344 L 94.226562 188.035156 L 95.277344 177.675781 L 96.449219 169.847656 L 100.160156 153.714844 L 105.871094 138.078125 L 112.679688 124.492188 L 121.363281 111.894531 L 131.222656 101.679688 L 142.097656 93.714844 L 155.125 87.558594 L 170.121094 83.425781 L 185.679688 81.792969 L 201.550781 82.714844 L 215.988281 85.949219 L 231.292969 92.023438 L 247.113281 100.828125 L 259.324219 110.164062 L 265.441406 103.203125 L 277.683594 89.273438 L 283.800781 82.308594 L 289.921875 75.347656 L 296.039062 68.382812 L 302.160156 61.417969 L 308.28125 54.457031 L 296.613281 44.304688 L 284.992188 36.058594 L 272.054688 28.410156 L 257.792969 21.351562 L 244.589844 16.023438 L 230.527344 11.828125 L 215.59375 8.777344 L 202.492188 7.109375 L 188.789062 6.238281 L 175.785156 6.152344 L 164.664062 6.808594 L 153.695312 8.191406 L 140.726562 10.8125 L 130.082031 13.796875 L 117.503906 18.34375 L 107.257812 22.914062 L 95.445312 29.398438 L 86.011719 35.636719 L 76.945312 42.636719 L 68.246094 50.398438 L 59.917969 58.925781 L 52.046875 68.203125 L 44.722656 78.300781 L 37.945312 89.210938 L 32.917969 98.53125 L 28.238281 108.371094 L 23.910156 118.734375 L 19.941406 129.621094 L 16.460938 141.042969 L 14.191406 149.96875 L 11.613281 162.34375 L 9.550781 175.261719 L 8.003906 188.726562 L 7.183594 199.179688 L 6.539062 213.59375 L 6.40625 228.300781 L 6.777344 242.109375 L 7.644531 255.363281 L 9.003906 268.070312 L 10.855469 280.226562 L 13.203125 291.828125 L 15.289062 300.171875 L 18.503906 310.8125 L 21.238281 318.433594 L 25.207031 328.15625 L 30.613281 339.625 L 35.289062 348.253906 Z M 131.445312 240.070312 L 122.636719 245.136719 L 113.890625 251.601562 L 105.210938 259.457031 L 95.371094 270.144531 L 99.292969 289.652344 L 104.523438 306.179688 L 112.0625 321.75 L 120.695312 334.117188 L 130.40625 343.386719 L 141.042969 349.765625 L 154.058594 353.746094 L 167.566406 355.050781 L 180.023438 353.976562 L 191.242188 351.015625 L 200.980469 346.386719 L 210.167969 339.460938 L 217.378906 331 L 223.082031 320.640625 L 226.804688 309.199219 L 228.558594 297.074219 L 228.671875 283.210938 L 227.003906 270.355469 L 223.542969 259.421875 L 218.285156 250.414062 L 210.121094 242.460938 L 200.300781 236.613281 L 189.042969 232.714844 L 176.34375 230.765625 L 164.691406 230.683594 L 153.824219 232.203125 L 142.738281 235.328125 Z M 131.445312 240.070312 "/>
<path style="fill:none;stroke-width:1;stroke-linecap:square;stroke-linejoin:miter;stroke:rgb(52.497864%,61.499023%,74.998474%);stroke-opacity:1;stroke-miterlimit:3.25;" d="M 40.28125 356.394531 L 51.203125 371.214844 L 63.339844 384.101562 L 78.105469 396.4375 L 92.179688 405.496094 L 105.222656 411.949219 L 118.859375 417.03125 L 134.75 421.296875 L 148.882812 423.695312 L 163.234375 424.847656 L 179.066406 424.707031 L 194.089844 423.226562 L 208.679688 420.4375 L 222.828125 416.332031 L 236.378906 410.953125 L 249.070312 404.355469 L 260.898438 396.546875 L 271.867188 387.515625 L 281.777344 377.367188 L 289.492188 367.671875 L 297.207031 355.667969 L 302.996094 344.351562 L 307.09375 334.046875 L 310.246094 323.175781 L 312.449219 311.738281 L 313.710938 299.742188 L 313.996094 285.097656 L 313.183594 270.9375 L 311.65625 259.519531 L 308.914062 247.042969 L 305.734375 237.074219 L 301.835938 227.746094 L 296.539062 217.6875 L 290.457031 208.539062 L 284.613281 201.421875 L 277.066406 193.960938 L 268.832031 187.359375 L 259.96875 181.589844 L 250.480469 176.652344 L 240.363281 172.550781 L 228.128906 168.878906 L 215.332031 166.296875 L 203.667969 164.929688 L 189.808594 164.386719 L 178.960938 165.011719 L 167.734375 166.894531 L 156.128906 170.03125 L 144.144531 174.421875 L 132.03125 179.976562 L 120.472656 186.566406 L 111.039062 193.042969 L 102.042969 200.277344 L 93.484375 208.277344 L 93.710938 196.777344 L 94.226562 188.035156 L 95.277344 177.675781 L 96.449219 169.847656 L 100.160156 153.714844 L 105.871094 138.078125 L 112.679688 124.492188 L 121.363281 111.894531 L 131.222656 101.679688 L 142.097656 93.714844 L 155.125 87.558594 L 170.121094 83.425781 L 185.679688 81.792969 L 201.550781 82.714844 L 215.988281 85.949219 L 231.292969 92.023438 L 247.113281 100.828125 L 259.324219 110.164062 L 265.441406 103.203125 L 277.683594 89.273438 L 283.800781 82.308594 L 289.921875 75.347656 L 296.039062 68.382812 L 302.160156 61.417969 L 308.28125 54.457031 L 296.613281 44.304688 L 284.992188 36.058594 L 272.054688 28.410156 L 257.792969 21.351562 L 244.589844 16.023438 L 230.527344 11.828125 L 215.59375 8.777344 L 202.492188 7.109375 L 188.789062 6.238281 L 175.785156 6.152344 L 164.664062 6.808594 L 153.695312 8.191406 L 140.726562 10.8125 L 130.082031 13.796875 L 117.503906 18.34375 L 107.257812 22.914062 L 95.445312 29.398438 L 86.011719 35.636719 L 76.945312 42.636719 L 68.246094 50.398438 L 59.917969 58.925781 L 52.046875 68.203125 L 44.722656 78.300781 L 37.945312 89.210938 L 32.917969 98.53125 L 28.238281 108.371094 L 23.910156 118.734375 L 19.941406 129.621094 L 16.460938 141.042969 L 14.191406 149.96875 L 11.613281 162.34375 L 9.550781 175.261719 L 8.003906 188.726562 L 7.183594 199.179688 L 6.539062 213.59375 L 6.40625 228.300781 L 6.777344 242.109375 L 7.644531 255.363281 L 9.003906 268.070312 L 10.855469 280.226562 L 13.203125 291.828125 L 15.289062 300.171875 L 18.503906 310.8125 L 21.238281 318.433594 L 25.207031 328.15625 L 30.613281 339.625 L 35.289062 348.253906 Z M 40.28125 356.394531 "/>
<path style="fill:none;stroke-width:1;stroke-linecap:square;stroke-linejoin:miter;stroke:rgb(52.497864%,61.499023%,74.998474%);stroke-opacity:1;stroke-miterlimit:3.25;" d="M 131.445312 240.070312 L 122.636719 245.136719 L 113.890625 251.601562 L 105.210938 259.457031 L 95.371094 270.144531 L 99.292969 289.652344 L 104.523438 306.179688 L 112.0625 321.75 L 120.695312 334.117188 L 130.40625 343.386719 L 141.042969 349.765625 L 154.058594 353.746094 L 167.566406 355.050781 L 180.023438 353.976562 L 191.242188 351.015625 L 200.980469 346.386719 L 210.167969 339.460938 L 217.378906 331 L 223.082031 320.640625 L 226.804688 309.199219 L 228.558594 297.074219 L 228.671875 283.210938 L 227.003906 270.355469 L 223.542969 259.421875 L 218.285156 250.414062 L 210.121094 242.460938 L 200.300781 236.613281 L 189.042969 232.714844 L 176.34375 230.765625 L 164.691406 230.683594 L 153.824219 232.203125 L 142.738281 235.328125 Z M 131.445312 240.070312 "/>
</g>
</svg>
