<?xml version="1.0" encoding="UTF-8"?>
<svg xmlns="http://www.w3.org/2000/svg" xmlns:xlink="http://www.w3.org/1999/xlink" width="359pt" height="432pt" viewBox="0 0 359 432" version="1.1">
<g id="surface56">
<path style=" stroke:none;fill-rule:evenodd;fill:rgb(66.497803%,77.897644%,94.998169%);fill-opacity:1;" d="M 7.160156 324.226562 L 206.238281 324.226562 L 206.238281 424.128906 L 296.28125 424.128906 L 296.28125 324.226562 L 350.796875 324.226562 L 350.796875 250.613281 L 299.566406 250.613281 L 299.566406 6.871094 L 179.542969 6.871094 L 174.15625 14.714844 L 168.769531 22.554688 L 163.382812 30.398438 L 157.996094 38.238281 L 152.609375 46.082031 L 141.835938 61.761719 L 136.449219 69.605469 L 131.058594 77.445312 L 125.671875 85.289062 L 114.898438 100.96875 L 109.511719 108.8125 L 104.125 116.652344 L 98.738281 124.496094 L 93.351562 132.335938 L 87.964844 140.179688 L 77.191406 155.859375 L 71.804688 163.703125 L 66.417969 171.542969 L 61.027344 179.386719 L 55.640625 187.226562 L 50.253906 195.070312 L 39.480469 210.75 L 34.09375 218.59375 L 28.707031 226.433594 L 23.320312 234.277344 L 12.546875 249.957031 L 7.160156 257.800781 Z M 189.476562 116.324219 L 182.445312 127.078125 L 172.46875 142.5625 L 167.230469 150.898438 L 161.988281 159.238281 L 146.378906 182.082031 L 138.578125 193.503906 L 130.773438 204.925781 L 122.972656 216.347656 L 115.167969 227.769531 L 107.367188 239.191406 L 99.5625 250.613281 L 210.859375 250.613281 L 210.859375 87.675781 L 208.597656 87.675781 L 202.167969 97.210938 L 195.792969 106.757812 Z M 189.476562 116.324219 "/>
<path style="fill:none;stroke-width:1;stroke-linecap:square;stroke-linejoin:miter;stroke:rgb(52.497864%,61.499023%,74.998474%);stroke-opacity:1;stroke-miterlimit:3.25;" d="M 7.160156 324.226562 L 206.238281 324.226562 L 206.238281 424.128906 L 296.28125 424.128906 L 296.28125 324.226562 L 350.796875 324.226562 L 350.796875 250.613281 L 299.566406 250.613281 L 299.566406 6.871094 L 179.542969 6.871094 L 174.15625 14.714844 L 168.769531 22.554688 L 163.382812 30.398438 L 157.996094 38.238281 L 152.609375 46.082031 L 141.835938 61.761719 L 136.449219 69.605469 L 131.058594 77.445312 L 125.671875 85.289062 L 114.898438 100.96875 L 109.511719 108.8125 L 104.125 116.652344 L 98.738281 124.496094 L 93.351562 132.335938 L 87.964844 140.179688 L 77.191406 155.859375 L 71.804688 163.703125 L 66.417969 171.542969 L 61.027344 179.386719 L 55.640625 187.226562 L 50.253906 195.070312 L 39.480469 210.75 L 34.09375 218.59375 L 28.707031 226.433594 L 23.320312 234.277344 L 12.546875 249.957031 L 7.160156 257.800781 Z M 7.160156 324.226562 "/>
<path style="fill:none;stroke-width:1;stroke-linecap:square;stroke-linejoin:miter;stroke:rgb(52.497864%,61.499023%,74.998474%);stroke-opacity:1;stroke-miterlimit:3.25;" d="M 189.476562 116.324219 L 182.445312 127.078125 L 172.46875 142.5625 L 167.230469 150.898438 L 161.988281 159.238281 L 146.378906 182.082031 L 138.578125 193.503906 L 130.773438 204.925781 L 122.972656 216.347656 L 115.167969 227.769531 L 107.367188 239.191406 L 99.5625 250.613281 L 210.859375 250.613281 L 210.859375 87.675781 L 208.597656 87.675781 L 202.167969 97.210938 L 195.792969 106.757812 Z M 189.476562 116.324219 "/>
</g>
</svg>
