<?xml version="1.0" encoding="UTF-8"?>
<svg xmlns="http://www.w3.org/2000/svg" xmlns:xlink="http://www.w3.org/1999/xlink" width="322pt" height="432pt" viewBox="0 0 322 432" version="1.1">
<g id="surface76">
<path style=" stroke:none;fill-rule:evenodd;fill:rgb(66.497803%,77.897644%,94.998169%);fill-opacity:1;" d="M 12.132812 376.59375 L 24.113281 386.441406 L 35.933594 394.542969 L 50.980469 403.226562 L 65.488281 410.3125 L 78.925781 415.5625 L 90.78125 419.042969 L 105.789062 422.152344 L 118.953125 423.855469 L 132.710938 424.746094 L 145.648438 424.832031 L 158.75 423.964844 L 169.574219 422.449219 L 182.445312 419.679688 L 193.074219 416.574219 L 205.710938 411.898438 L 215.988281 407.160156 L 225.863281 401.664062 L 235.335938 395.414062 L 244.40625 388.40625 L 253.078125 380.648438 L 261.34375 372.132812 L 269.140625 362.835938 L 276.40625 352.730469 L 283.136719 341.8125 L 288.136719 332.496094 L 292.792969 322.660156 L 297.105469 312.308594 L 301.082031 301.429688 L 304.601562 289.992188 L 306.902344 281.0625 L 309.511719 268.675781 L 311.125 259.03125 L 312.820312 245.695312 L 313.996094 231.816406 L 314.648438 217.398438 L 314.796875 206.222656 L 314.550781 192.273438 L 313.824219 178.875 L 312.605469 166.035156 L 310.902344 153.742188 L 308.714844 142.007812 L 306.75 133.570312 L 303.710938 122.800781 L 301.109375 115.089844 L 296.292969 102.84375 L 292.070312 93.601562 L 287.519531 84.84375 L 282.640625 76.582031 L 277.269531 69.054688 L 271.898438 61.523438 L 259.886719 48.398438 L 246.871094 37.082031 L 238.96875 31.808594 L 231.0625 26.53125 L 217.917969 19.914062 L 204.148438 14.644531 L 190.171875 10.617188 L 173.988281 7.550781 L 159.640625 6.207031 L 143.621094 6.167969 L 126.609375 7.734375 L 111.964844 10.523438 L 97.773438 14.621094 L 84.1875 20 L 71.460938 26.605469 L 59.59375 34.4375 L 48.589844 43.492188 L 38.636719 53.617188 L 29.855469 64.804688 L 23.132812 75.460938 L 17.316406 86.917969 L 13.261719 97.277344 L 10.140625 108.121094 L 7.957031 119.445312 L 6.707031 131.253906 L 6.425781 145.675781 L 7.058594 157.859375 L 8.761719 171.242188 L 11.5 183.730469 L 14.675781 193.71875 L 18.570312 203.023438 L 23.871094 213.03125 L 29.96875 222.144531 L 35.832031 229.238281 L 43.410156 236.6875 L 51.703125 243.277344 L 60.652344 249.039062 L 70.261719 253.96875 L 80.527344 258.066406 L 92.949219 261.734375 L 105.921875 264.3125 L 117.726562 265.679688 L 131.730469 266.222656 L 142.363281 265.582031 L 153.441406 263.671875 L 164.960938 260.488281 L 176.921875 256.027344 L 187.375 251.210938 L 199.140625 244.636719 L 208.820312 238.214844 L 219.644531 229.796875 L 228.519531 221.792969 L 228.289062 233.320312 L 227.769531 242.105469 L 226.703125 252.53125 L 225.519531 260.433594 L 221.773438 276.78125 L 216.078125 292.660156 L 208.527344 307.671875 L 200.503906 319.121094 L 190.566406 329.34375 L 179.597656 337.335938 L 166.453125 343.535156 L 151.367188 347.664062 L 135.683594 349.292969 L 119.675781 348.375 L 105.109375 345.144531 L 90.929688 339.632812 L 82.898438 335.21875 L 74.871094 330.804688 L 61.617188 320.761719 L 55.433594 327.742188 L 49.246094 334.722656 L 43.0625 341.699219 L 36.875 348.679688 L 30.691406 355.660156 L 24.503906 362.636719 L 18.320312 369.617188 Z M 217.949219 169.695312 L 226.636719 160.011719 L 224.632812 150.472656 L 222.632812 140.933594 L 217.324219 124.613281 L 210.25 110.007812 L 202.039062 98.1875 L 192.132812 88.542969 L 181.386719 81.84375 L 168.351562 77.488281 L 154.945312 75.835938 L 141.398438 76.785156 L 128.476562 80.207031 L 118.152344 85.324219 L 108.519531 93.117188 L 101.578125 101.941406 L 95.875 113.589844 L 92.734375 125.5 L 91.492188 139.199219 L 92.132812 153.296875 L 94.578125 165.3125 L 98.828125 175.40625 L 104.882812 183.578125 L 113.851562 190.671875 L 124.429688 195.78125 L 136.558594 198.941406 L 152.058594 200.175781 L 161.625 199.539062 L 172.625 197.308594 L 182.609375 193.976562 L 192.773438 189.332031 L 200.382812 184.691406 L 209.195312 177.921875 Z M 217.949219 169.695312 "/>
<path style="fill:none;stroke-width:1;stroke-linecap:square;stroke-linejoin:miter;stroke:rgb(52.497864%,61.499023%,74.998474%);stroke-opacity:1;stroke-miterlimit:3.25;" d="M 12.132812 376.59375 L 24.113281 386.441406 L 35.933594 394.542969 L 50.980469 403.226562 L 65.488281 410.3125 L 78.925781 415.5625 L 90.78125 419.042969 L 105.789062 422.152344 L 118.953125 423.855469 L 132.710938 424.746094 L 145.648438 424.832031 L 158.75 423.964844 L 169.574219 422.449219 L 182.445312 419.679688 L 193.074219 416.574219 L 205.710938 411.898438 L 215.988281 407.160156 L 225.863281 401.664062 L 235.335938 395.414062 L 244.40625 388.40625 L 253.078125 380.648438 L 261.34375 372.132812 L 269.140625 362.835938 L 276.40625 352.730469 L 283.136719 341.8125 L 288.136719 332.496094 L 292.792969 322.660156 L 297.105469 312.308594 L 301.082031 301.429688 L 304.601562 289.992188 L 306.902344 281.0625 L 309.511719 268.675781 L 311.125 259.03125 L 312.820312 245.695312 L 313.996094 231.816406 L 314.648438 217.398438 L 314.796875 206.222656 L 314.550781 192.273438 L 313.824219 178.875 L 312.605469 166.035156 L 310.902344 153.742188 L 308.714844 142.007812 L 306.75 133.570312 L 303.710938 122.800781 L 301.109375 115.089844 L 296.292969 102.84375 L 292.070312 93.601562 L 287.519531 84.84375 L 282.640625 76.582031 L 277.269531 69.054688 L 271.898438 61.523438 L 259.886719 48.398438 L 246.871094 37.082031 L 238.96875 31.808594 L 231.0625 26.53125 L 217.917969 19.914062 L 204.148438 14.644531 L 190.171875 10.617188 L 173.988281 7.550781 L 159.640625 6.207031 L 143.621094 6.167969 L 126.609375 7.734375 L 111.964844 10.523438 L 97.773438 14.621094 L 84.1875 20 L 71.460938 26.605469 L 59.59375 34.4375 L 48.589844 43.492188 L 38.636719 53.617188 L 29.855469 64.804688 L 23.132812 75.460938 L 17.316406 86.917969 L 13.261719 97.277344 L 10.140625 108.121094 L 7.957031 119.445312 L 6.707031 131.253906 L 6.425781 145.675781 L 7.058594 157.859375 L 8.761719 171.242188 L 11.5 183.730469 L 14.675781 193.71875 L 18.570312 203.023438 L 23.871094 213.03125 L 29.96875 222.144531 L 35.832031 229.238281 L 43.410156 236.6875 L 51.703125 243.277344 L 60.652344 249.039062 L 70.261719 253.96875 L 80.527344 258.066406 L 92.949219 261.734375 L 105.921875 264.3125 L 117.726562 265.679688 L 131.730469 266.222656 L 142.363281 265.582031 L 153.441406 263.671875 L 164.960938 260.488281 L 176.921875 256.027344 L 187.375 251.210938 L 199.140625 244.636719 L 208.820312 238.214844 L 219.644531 229.796875 L 228.519531 221.792969 L 228.289062 233.320312 L 227.769531 242.105469 L 226.703125 252.53125 L 225.519531 260.433594 L 221.773438 276.78125 L 216.078125 292.660156 L 208.527344 307.671875 L 200.503906 319.121094 L 190.566406 329.34375 L 179.597656 337.335938 L 166.453125 343.535156 L 151.367188 347.664062 L 135.683594 349.292969 L 119.675781 348.375 L 105.109375 345.144531 L 90.929688 339.632812 L 82.898438 335.21875 L 74.871094 330.804688 L 61.617188 320.761719 L 55.433594 327.742188 L 49.246094 334.722656 L 43.0625 341.699219 L 36.875 348.679688 L 30.691406 355.660156 L 24.503906 362.636719 L 18.320312 369.617188 Z M 12.132812 376.59375 "/>
<path style="fill:none;stroke-width:1;stroke-linecap:square;stroke-linejoin:miter;stroke:rgb(52.497864%,61.499023%,74.998474%);stroke-opacity:1;stroke-miterlimit:3.25;" d="M 217.949219 169.695312 L 226.636719 160.011719 L 224.632812 150.472656 L 222.632812 140.933594 L 217.324219 124.613281 L 210.25 110.007812 L 202.039062 98.1875 L 192.132812 88.542969 L 181.386719 81.84375 L 168.351562 77.488281 L 154.945312 75.835938 L 141.398438 76.785156 L 128.476562 80.207031 L 118.152344 85.324219 L 108.519531 93.117188 L 101.578125 101.941406 L 95.875 113.589844 L 92.734375 125.5 L 91.492188 139.199219 L 92.132812 153.296875 L 94.578125 165.3125 L 98.828125 175.40625 L 104.882812 183.578125 L 113.851562 190.671875 L 124.429688 195.78125 L 136.558594 198.941406 L 152.058594 200.175781 L 161.625 199.539062 L 172.625 197.308594 L 182.609375 193.976562 L 192.773438 189.332031 L 200.382812 184.691406 L 209.195312 177.921875 Z M 217.949219 169.695312 "/>
</g>
</svg>
