<?xml version="1.0" encoding="UTF-8"?>
<svg xmlns="http://www.w3.org/2000/svg" xmlns:xlink="http://www.w3.org/1999/xlink" width="314pt" height="432pt" viewBox="0 0 314 432" version="1.1">
<g id="surface80">
<path style="fill-rule:nonzero;fill:rgb(66.497803%,77.897644%,94.998169%);fill-opacity:1;stroke-width:0.03;stroke-linecap:square;stroke-linejoin:miter;stroke:rgb(66.497803%,77.897644%,94.998169%);stroke-opacity:1;stroke-miterlimit:3.25;" d="M 306.476562 346.433594 L 210.800781 346.433594 L 210.800781 6.003906 L 139.5625 6.003906 L 127.03125 12.597656 L 114.078125 18.636719 L 100.695312 24.117188 L 86.855469 29.046875 L 73.757812 33.011719 L 59.480469 36.695312 L 44.023438 40.097656 L 27.390625 43.222656 L 27.390625 101.679688 L 113.785156 101.679688 L 113.785156 346.433594 L 6.253906 346.433594 L 6.253906 424.996094 L 306.476562 424.996094 Z M 306.476562 346.433594 "/>
<path style="fill:none;stroke-width:1;stroke-linecap:square;stroke-linejoin:miter;stroke:rgb(52.497864%,61.499023%,74.998474%);stroke-opacity:1;stroke-miterlimit:3.25;" d="M 306.476562 346.433594 L 210.800781 346.433594 L 210.800781 6.003906 L 139.5625 6.003906 L 127.03125 12.597656 L 114.078125 18.636719 L 100.695312 24.117188 L 86.855469 29.046875 L 73.757812 33.011719 L 59.480469 36.695312 L 44.023438 40.097656 L 27.390625 43.222656 L 27.390625 101.679688 L 113.785156 101.679688 L 113.785156 346.433594 L 6.253906 346.433594 L 6.253906 424.996094 L 306.476562 424.996094 Z M 306.476562 346.433594 "/>
</g>
</svg>
