<?xml version="1.0" encoding="UTF-8"?>
<svg xmlns="http://www.w3.org/2000/svg" xmlns:xlink="http://www.w3.org/1999/xlink" width="318pt" height="432pt" viewBox="0 0 318 432" version="1.1">
<g id="surface72">
<path style=" stroke:none;fill-rule:evenodd;fill:rgb(66.497803%,77.897644%,94.998169%);fill-opacity:1;" d="M 25.796875 373.546875 L 31.707031 380.601562 L 38.34375 387.214844 L 45.710938 393.382812 L 53.820312 399.074219 L 62.59375 404.226562 L 72.023438 408.839844 L 82.117188 412.910156 L 92.863281 416.445312 L 102.328125 418.957031 L 116.238281 421.734375 L 128.761719 423.425781 L 141.839844 424.484375 L 155.476562 424.90625 L 169.871094 424.679688 L 183.738281 423.769531 L 196.945312 422.179688 L 209.480469 419.902344 L 221.351562 416.945312 L 232.5625 413.335938 L 243.03125 409.207031 L 252.757812 404.570312 L 261.738281 399.425781 L 269.972656 393.773438 L 278.675781 386.578125 L 285.332031 379.957031 L 293.917969 369.238281 L 300.144531 358.914062 L 305.550781 346.441406 L 308.820312 334.753906 L 310.761719 320.925781 L 310.941406 307.613281 L 309.605469 293.71875 L 306.722656 280.917969 L 302.359375 269.136719 L 296.746094 258.300781 L 290.578125 249.28125 L 281.972656 239.375 L 272.976562 231.117188 L 261.988281 223.015625 L 248.289062 214.53125 L 234.871094 207.5 L 234.871094 204.921875 L 248.027344 194.507812 L 261.1875 184.09375 L 270.011719 174.644531 L 276.9375 165.941406 L 282.785156 156.710938 L 286.625 148.625 L 289.527344 140.179688 L 291.777344 129.574219 L 292.675781 118.453125 L 292.039062 103.621094 L 290.070312 91.285156 L 286.792969 79.539062 L 281.566406 67.039062 L 275.726562 56.785156 L 268.769531 47.449219 L 260.699219 39.03125 L 251.527344 31.523438 L 239.957031 24.160156 L 227.0625 17.941406 L 214.496094 13.371094 L 201.007812 9.84375 L 186.671875 7.445312 L 171.488281 6.175781 L 153.742188 6.09375 L 138.558594 7.179688 L 124.011719 9.351562 L 108.40625 13.09375 L 95.359375 17.539062 L 83.339844 22.992188 L 72.347656 29.441406 L 61.21875 37.882812 L 52.476562 46.300781 L 44.855469 55.585938 L 38.34375 65.726562 L 32.988281 76.710938 L 29.03125 88.402344 L 26.511719 100.789062 L 25.492188 112.191406 L 25.679688 125.71875 L 27.195312 137.773438 L 29.457031 147.222656 L 32.617188 156.125 L 36.6875 164.480469 L 41.65625 172.289062 L 51.871094 182.359375 L 62.089844 192.425781 L 82.519531 212.558594 L 82.519531 215.140625 L 73.4375 219.890625 L 64.644531 224.980469 L 56.132812 230.414062 L 48.882812 235.542969 L 35.703125 246.890625 L 25.027344 258.875 L 16.980469 271.332031 L 10.890625 285.027344 L 7.480469 298.976562 L 6.347656 314.226562 L 7.1875 323.820312 L 8.027344 333.410156 L 12.527344 349.71875 L 16.171875 358.09375 L 20.617188 366.042969 Z M 213.695312 139.550781 L 215.527344 129.21875 L 215.570312 116.792969 L 213.523438 105.566406 L 209.433594 95.652344 L 203.296875 87.050781 L 196.316406 80.710938 L 187.90625 75.902344 L 176.539062 72.324219 L 163.292969 70.789062 L 151.21875 71.179688 L 139.503906 73.574219 L 128.964844 78.023438 L 116.296875 88.117188 L 109.015625 102.761719 L 107.46875 112.542969 L 107.535156 121.996094 L 109.28125 131.046875 L 112.773438 139.238281 L 121.28125 149.898438 L 135.1875 159.621094 L 146.898438 165.925781 L 158.070312 171.167969 L 170.292969 176.261719 L 185.871094 182.011719 L 195.023438 172.792969 L 203.8125 161.394531 L 209.304688 151.617188 Z M 221.25 328.113281 L 223.746094 316.402344 L 223.679688 303.578125 L 220.972656 293.199219 L 215.160156 283.84375 L 205.933594 274.929688 L 194.671875 267.324219 L 180.175781 259.804688 L 174.804688 257.429688 L 169.160156 255.121094 L 166.828125 254.21875 L 157.082031 250.472656 L 147.339844 246.730469 L 137.59375 242.984375 L 127.847656 239.242188 L 118.777344 246.246094 L 109.652344 254.679688 L 102.5 262.671875 L 96.304688 271.117188 L 89.488281 285.933594 L 86.984375 303.511719 L 87.824219 313.71875 L 90.933594 324.4375 L 95.417969 332.613281 L 102.777344 340.96875 L 112.335938 348.015625 L 123.207031 353.492188 L 135.171875 357.335938 L 148.226562 359.550781 L 164.054688 360.09375 L 178.15625 358.769531 L 190.679688 355.683594 L 201.625 350.835938 L 210.871094 344.1875 L 217.015625 336.851562 Z M 221.25 328.113281 "/>
<path style="fill:none;stroke-width:1;stroke-linecap:square;stroke-linejoin:miter;stroke:rgb(52.497864%,61.499023%,74.998474%);stroke-opacity:1;stroke-miterlimit:3.25;" d="M 25.796875 373.546875 L 31.707031 380.601562 L 38.34375 387.214844 L 45.710938 393.382812 L 53.820312 399.074219 L 62.59375 404.226562 L 72.023438 408.839844 L 82.117188 412.910156 L 92.863281 416.445312 L 102.328125 418.957031 L 116.238281 421.734375 L 128.761719 423.425781 L 141.839844 424.484375 L 155.476562 424.90625 L 169.871094 424.679688 L 183.738281 423.769531 L 196.945312 422.179688 L 209.480469 419.902344 L 221.351562 416.945312 L 232.5625 413.335938 L 243.03125 409.207031 L 252.757812 404.570312 L 261.738281 399.425781 L 269.972656 393.773438 L 278.675781 386.578125 L 285.332031 379.957031 L 293.917969 369.238281 L 300.144531 358.914062 L 305.550781 346.441406 L 308.820312 334.753906 L 310.761719 320.925781 L 310.941406 307.613281 L 309.605469 293.71875 L 306.722656 280.917969 L 302.359375 269.136719 L 296.746094 258.300781 L 290.578125 249.28125 L 281.972656 239.375 L 272.976562 231.117188 L 261.988281 223.015625 L 248.289062 214.53125 L 234.871094 207.5 L 234.871094 204.921875 L 248.027344 194.507812 L 261.1875 184.09375 L 270.011719 174.644531 L 276.9375 165.941406 L 282.785156 156.710938 L 286.625 148.625 L 289.527344 140.179688 L 291.777344 129.574219 L 292.675781 118.453125 L 292.039062 103.621094 L 290.070312 91.285156 L 286.792969 79.539062 L 281.566406 67.039062 L 275.726562 56.785156 L 268.769531 47.449219 L 260.699219 39.03125 L 251.527344 31.523438 L 239.957031 24.160156 L 227.0625 17.941406 L 214.496094 13.371094 L 201.007812 9.84375 L 186.671875 7.445312 L 171.488281 6.175781 L 153.742188 6.09375 L 138.558594 7.179688 L 124.011719 9.351562 L 108.40625 13.09375 L 95.359375 17.539062 L 83.339844 22.992188 L 72.347656 29.441406 L 61.21875 37.882812 L 52.476562 46.300781 L 44.855469 55.585938 L 38.34375 65.726562 L 32.988281 76.710938 L 29.03125 88.402344 L 26.511719 100.789062 L 25.492188 112.191406 L 25.679688 125.71875 L 27.195312 137.773438 L 29.457031 147.222656 L 32.617188 156.125 L 36.6875 164.480469 L 41.65625 172.289062 L 51.871094 182.359375 L 62.089844 192.425781 L 82.519531 212.558594 L 82.519531 215.140625 L 73.4375 219.890625 L 64.644531 224.980469 L 56.132812 230.414062 L 48.882812 235.542969 L 35.703125 246.890625 L 25.027344 258.875 L 16.980469 271.332031 L 10.890625 285.027344 L 7.480469 298.976562 L 6.347656 314.226562 L 7.1875 323.820312 L 8.027344 333.410156 L 12.527344 349.71875 L 16.171875 358.09375 L 20.617188 366.042969 Z M 25.796875 373.546875 "/>
<path style="fill:none;stroke-width:1;stroke-linecap:square;stroke-linejoin:miter;stroke:rgb(52.497864%,61.499023%,74.998474%);stroke-opacity:1;stroke-miterlimit:3.25;" d="M 213.695312 139.550781 L 215.527344 129.21875 L 215.570312 116.792969 L 213.523438 105.566406 L 209.433594 95.652344 L 203.296875 87.050781 L 196.316406 80.710938 L 187.90625 75.902344 L 176.539062 72.324219 L 163.292969 70.789062 L 151.21875 71.179688 L 139.503906 73.574219 L 128.964844 78.023438 L 116.296875 88.117188 L 109.015625 102.761719 L 107.46875 112.542969 L 107.535156 121.996094 L 109.28125 131.046875 L 112.773438 139.238281 L 121.28125 149.898438 L 135.1875 159.621094 L 146.898438 165.925781 L 158.070312 171.167969 L 170.292969 176.261719 L 185.871094 182.011719 L 195.023438 172.792969 L 203.8125 161.394531 L 209.304688 151.617188 Z M 213.695312 139.550781 "/>
<path style="fill:none;stroke-width:1;stroke-linecap:square;stroke-linejoin:miter;stroke:rgb(52.497864%,61.499023%,74.998474%);stroke-opacity:1;stroke-miterlimit:3.25;" d="M 221.25 328.113281 L 223.746094 316.402344 L 223.679688 303.578125 L 220.972656 293.199219 L 215.160156 283.84375 L 205.933594 274.929688 L 194.671875 267.324219 L 180.175781 259.804688 L 174.804688 257.429688 L 169.160156 255.121094 L 166.828125 254.21875 L 157.082031 250.472656 L 147.339844 246.730469 L 137.59375 242.984375 L 127.847656 239.242188 L 118.777344 246.246094 L 109.652344 254.679688 L 102.5 262.671875 L 96.304688 271.117188 L 89.488281 285.933594 L 86.984375 303.511719 L 87.824219 313.71875 L 90.933594 324.4375 L 95.417969 332.613281 L 102.777344 340.96875 L 112.335938 348.015625 L 123.207031 353.492188 L 135.171875 357.335938 L 148.226562 359.550781 L 164.054688 360.09375 L 178.15625 358.769531 L 190.679688 355.683594 L 201.625 350.835938 L 210.871094 344.1875 L 217.015625 336.851562 Z M 221.25 328.113281 "/>
</g>
</svg>
